<svg width="51" height="48" viewBox="0 0 51 48" fill="none" xmlns="http://www.w3.org/2000/svg">
<g id="Icon">
<path id="Oval" fill-rule="evenodd" clip-rule="evenodd" d="M25.4919 48C39.5707 48 50.9838 37.2548 50.9838 24C50.9838 10.7452 39.5707 0 25.4919 0C11.4131 0 0 10.7452 0 24C0 37.2548 11.4131 48 25.4919 48Z" fill="#FD346E"/>
<path id="Icon_2" d="M22.0896 31.6484L15.1607 25.1641C14.9671 24.9818 14.8703 24.7474 14.8703 24.461C14.8703 24.1745 14.9671 23.9401 15.1607 23.7578L16.6959 22.3516C16.8895 22.1433 17.1315 22.0391 17.4219 22.0391C17.7124 22.0391 17.9682 22.1433 18.1895 22.3516L22.8365 26.7266L32.7942 17.3516C33.0155 17.1433 33.2714 17.0391 33.5618 17.0391C33.8522 17.0391 34.0943 17.1433 34.2879 17.3516L35.823 18.7579C36.0167 18.9401 36.1135 19.1745 36.1135 19.461C36.1135 19.7474 36.0167 19.9818 35.823 20.1641L23.5833 31.6484C23.3897 31.8568 23.1407 31.9609 22.8365 31.9609C22.5322 31.9609 22.2833 31.8568 22.0896 31.6484Z" fill="white"/>
</g>
</svg>
