<svg width="53" height="48" viewBox="0 0 53 48" fill="none" xmlns="http://www.w3.org/2000/svg">
<g id="Icon">
<path id="Oval" fill-rule="evenodd" clip-rule="evenodd" d="M26.2298 48C40.3086 48 51.7217 37.2548 51.7217 24C51.7217 10.7452 40.3086 0 26.2298 0C12.151 0 0.737915 10.7452 0.737915 24C0.737915 37.2548 12.151 48 26.2298 48Z" fill="#6001D3"/>
<path id="Icon_2" d="M22.8276 31.6484L15.8986 25.1641C15.705 24.9818 15.6082 24.7474 15.6082 24.461C15.6082 24.1745 15.705 23.9401 15.8986 23.7578L17.4338 22.3516C17.6274 22.1433 17.8694 22.0391 18.1599 22.0391C18.4503 22.0391 18.7062 22.1433 18.9274 22.3516L23.5744 26.7266L33.5321 17.3516C33.7534 17.1433 34.0093 17.0391 34.2997 17.0391C34.5901 17.0391 34.8322 17.1433 35.0258 17.3516L36.5609 18.7579C36.7546 18.9401 36.8514 19.1745 36.8514 19.461C36.8514 19.7474 36.7546 19.9818 36.5609 20.1641L24.3212 31.6484C24.1276 31.8568 23.8786 31.9609 23.5744 31.9609C23.2701 31.9609 23.0212 31.8568 22.8276 31.6484Z" fill="white"/>
</g>
</svg>
